<?xml version="1.0" encoding="utf-8"?>
<!-- Generator: Adobe Illustrator 23.0.6, SVG Export Plug-In . SVG Version: 6.00 Build 0)  -->
<svg version="1.1" xmlns="http://www.w3.org/2000/svg" class="logo" xmlns:xlink="http://www.w3.org/1999/xlink" x="0px" y="0px" width="289px"
	 height="289px" viewBox="0 0 289 289" style="enable-background:new 0 0 289 289;" xml:space="preserve">
<style type="text/css">
	.st0{display:none;}
	.st1{display:inline;}
	.st2{fill:#CA851C;}
	.st3{fill:#F5B43D;}
	.st4{fill:#D79930;}
	.st5{fill:#6C350F;}
	.st6{fill:#D7D8DC;}
	.st7{fill:#AEADB3;}
	.st8{fill:#1E120D;}
	.st9{fill:#9A989E;}
	.st10{display:inline;fill:#746A5C;}
	.st11{display:inline;fill:#C48E6D;}
	.st12{display:inline;fill:#D09E81;}
	.st13{display:inline;fill:#9A989E;}
	.st14{display:inline;fill:#C8B99D;}
	.st15{fill:#804521;}
	.st16{fill:#915F42;}
</style>
<g id="Layer_1">
	<g id="XMLID_200_">
		<path id="XMLID_87_" class="st6" d="M59.5,114.9l85-0.3v94.3c0,0-8,0.4-30.1,14.7c-18.4,12-19.5,13.8-32,14.4
			c-12.5,0.6-36-19.7-44.1-36.1c-8.1-16.5,12.5-22.1,16.6-41.3S59.5,114.9,59.5,114.9z"/>
		<path id="XMLID_86_" class="st7" d="M226.8,114.9l-85-0.3v94.3c0,0,7.9,0.5,30.1,14.7c20,12.8,19.5,13.8,32,14.4
			c12.5,0.6,37.4-26.7,44.1-36.1c6.7-9.5-12.5-22.1-16.6-41.3C227.2,141.5,226.8,114.9,226.8,114.9z"/>
		<path id="XMLID_188_" class="st8" d="M220,156.5c-0.5-1.4-7.4-7-9.4-9.4c-0.4-0.5-0.7-1.1-1-1.8c-1.2-3.4-0.5-7.1,1.5-10.1
			c2-3,4.3-8,4-15c-0.2-5.3-6.5-4.8-6.5-4.8l-66.9-0.5v0l0,0l0,0v0l-66.9,0.5c0,0-6.2-0.5-6.5,4.8c-0.3,6.9,2,12,4,15
			c2,3,2.8,6.7,1.5,10.1c-0.3,0.7-0.6,1.3-1,1.8c-1.9,2.4-8.9,7.9-9.4,9.4c-0.5,1.4,0,11,0,13.7c0,2.6,13.2,21.3,17.3,24.7
			c4.1,3.4,7.2,5.5,11.5,5.3c3.4-0.2,8.2-3.4,10-4.7c0.5-0.3,0.9-0.7,1.3-1.1c3.9-3.9,26.2-26.7,29.9-28.2c2.9-1.2,7.8-1.2,8.1-1.2
			c0.3,0,5.2,0,8.1,1.2c3.7,1.5,26,24.3,29.9,28.2c0.4,0.4,0.8,0.8,1.3,1.1c1.8,1.3,6.6,4.5,10,4.7c4.3,0.2,7.4-1.9,11.5-5.3
			c4.1-3.4,17.3-22.1,17.3-24.7C220,167.6,220.5,158,220,156.5z M203.7,171.2c-1,2.4-11.3,18-16.5,18.7c-4.7,0.6-13.5-7-15.3-8.6
			c-0.2-0.2-0.4-0.4-0.6-0.6c-2.1-2.3-15.9-16.8-20.6-18.2c-4.1-1.2-13.6-1.2-17.7,0c-4.6,1.3-18.5,15.9-20.6,18.2
			c-0.2,0.2-0.4,0.4-0.6,0.6c-1.8,1.6-10.5,9.2-15.3,8.6c-5.3-0.7-15.6-16.3-16.5-18.7c-0.8-2.1,0.2-12.8,0.4-15.5
			c0-0.4,0.1-0.8,0.2-1.2l0.7-3.6c0.4-1.9,1.3-3.7,2.6-5.1c1.6-1.8,3.7-3.9,4.7-3.6c1.7,0.5,15.6-1.9,21.6-4.6
			c6-2.6,13.4-12,17.5-16.3c4-4.2,24.3-4.2,28.3,0c4.1,4.3,11.5,13.7,17.5,16.3c6,2.6,19.9,5,21.6,4.6c1-0.3,3.1,1.8,4.7,3.6
			c1.3,1.5,2.2,3.2,2.6,5.1l0.7,3.6c0.1,0.4,0.1,0.8,0.2,1.2C203.5,158.3,204.5,169.1,203.7,171.2z"/>
		<g id="XMLID_88_">
			<path id="XMLID_185_" class="st7" d="M227,113.2c-2.6-44.3-14.7-79.3-84-79.3c-0.7,0-1.3,0-2,0v79.3H227z"/>
			<path id="XMLID_191_" class="st6" d="M59,113.2h82V33.9C73.5,34.6,61.6,69.4,59,113.2z"/>
		</g>
		<path id="XMLID_84_" class="st9" d="M195,212.2c0.7,4.5-1.8,8.6-5.6,9.2c-3.8,0.6-7.5-2.5-8.2-7s1.8-8.6,5.6-9.2
			S194.2,207.7,195,212.2z"/>
		<rect id="XMLID_89_" x="58.8" y="111" class="st8" width="168.3" height="5.2"/>

			<rect id="XMLID_90_" x="212.6" y="191.6" transform="matrix(0.6173 -0.7868 0.7868 0.6173 -71.5181 242.734)" class="st8" width="2.2" height="6.6"/>

			<rect id="XMLID_192_" x="214.9" y="188.9" transform="matrix(0.6173 -0.7867 0.7867 0.6173 -68.5141 243.4558)" class="st8" width="2.2" height="6.6"/>

			<rect id="XMLID_193_" x="217.3" y="185.9" transform="matrix(0.6174 -0.7867 0.7867 0.6174 -65.2781 244.2182)" class="st8" width="2.2" height="6.6"/>

			<rect id="XMLID_194_" x="219.7" y="183.2" transform="matrix(0.6173 -0.7867 0.7867 0.6173 -62.2341 245.0184)" class="st8" width="2.2" height="6.6"/>

			<rect id="XMLID_195_" x="222.1" y="180.3" transform="matrix(0.6172 -0.7868 0.7868 0.6172 -59.0425 245.8458)" class="st8" width="2.2" height="6.6"/>

			<rect id="XMLID_199_" x="67.3" y="191.6" transform="matrix(-0.6173 -0.7868 0.7868 -0.6173 -42.7911 368.9309)" class="st8" width="2.2" height="6.6"/>

			<rect id="XMLID_198_" x="65" y="188.9" transform="matrix(-0.6173 -0.7867 0.7867 -0.6173 -44.3151 362.7572)" class="st8" width="2.2" height="6.6"/>

			<rect id="XMLID_197_" x="62.6" y="185.9" transform="matrix(-0.6173 -0.7867 0.7867 -0.6173 -45.8889 356.1024)" class="st8" width="2.2" height="6.6"/>

			<rect id="XMLID_196_" x="60.2" y="183.2" transform="matrix(-0.6173 -0.7867 0.7867 -0.6173 -47.5287 349.8454)" class="st8" width="2.2" height="6.6"/>

			<rect id="XMLID_190_" x="57.8" y="180.3" transform="matrix(-0.6173 -0.7867 0.7867 -0.6173 -49.1562 343.3001)" class="st8" width="2.2" height="6.6"/>
	</g>
</g>
<g id="Layer_3" class="st0">
	<g id="XMLID_2_">

			<image style="display:inline;overflow:visible;" width="288" height="253" xlink:href="C6340A7.png"  transform="matrix(1 0 0 1 6 17)">
		</image>
	</g>
	<path class="st10" d="M242.6,210c0,0-68.2,10.8-100.5,10.2c-32.4-0.6-99.7-10.2-99.7-10.2s-12.7-8.1,29.8-49.2
		c27.3-26.4,24.5-91.9,70.3-98c0,0,0,0,0,0c0,0,0,0,0,0c0,0,0,0,0,0c0,0,0,0,0,0c45.8,6.1,43,71.5,70.3,98
		C255.3,201.9,242.6,210,242.6,210z"/>
	<path class="st11" d="M143.6,207.5v-130c28.7,0,51.9,29.1,51.9,65C195.5,178.4,172.3,207.5,143.6,207.5z"/>
	<path class="st12" d="M143.6,77.4v130c-28.7,0-51.9-29.1-51.9-65C91.7,106.5,114.9,77.4,143.6,77.4z"/>
	<path class="st13" d="M192.7,161.9c-3.4-33-12-45.4-18.4-53.9c-6.4-8.6-17.6-11.4-17.6-11.4s-12.8,25.7-37.8,32.8
		c-3,0.9-13.8-10.4-12.2-12.1c-2.5,1.3-13.6,10.5-12.3,43.5c0.8,21.9-15.6-35.2-6.5-62.9c4.1-12.6,16.4-31.2,22.7-34.9
		c9.1-5.3,31.2-8.1,31.2-8.1s19.8,2.4,29.4,6.1c10.3,4,22.1,23.1,26.4,32.1C204.3,107.3,194.8,182.4,192.7,161.9z"/>
	<path id="XMLID_91_" class="st14" d="M35,206.3c2.5,7.5,29,9.9,104.4,18.2l6.2,0.2c75.3-8.3,101.9-10.6,104.4-18.2
		C251.2,202.7,211.8,47,142.5,47C73.2,47,33.8,202.5,35,206.3z M144.8,220.2l-2.4,0.1v0l-0.4,0l-0.4,0v0l-2.4-0.1
		c-112.3-9.8-111.8-15.8-69.5-52.5c27.6-23.9,25.2-81.2,72.2-86.6c0,0,0,0,0,0c0,0,0,0,0,0c0,0,0,0,0,0c47,5.4,44.9,62.5,72.2,86.6
		C255.6,204,257.2,210.3,144.8,220.2z"/>
	<path id="XMLID_54_" class="st13" d="M170.1,188c-3.8-7.2-9.9-16.8-22-18c-1.3-0.1-1.3,1.3-4.7,1.3c-3.3,0-3.4-1.4-5-1.2
		c-11.4,1.5-17.8,10.8-21.5,17.7C100.3,172.7,91.7,148,91.7,148s0.6,79.5,52.2,79.5c51.6,0,51.6-79.5,51.6-79.5
		S186.9,172.9,170.1,188z M143.6,195.9c-7.2,0-13.7,1.1-19.4-2.5c5-3.6,11.5-8.6,19.4-8.6c10.2,0,14.4,5,19.4,8.6
		C157.3,197,150.8,195.9,143.6,195.9z"/>
</g>
<g id="Layer_4" class="st0">
	<g id="XMLID_3_" class="st1">
		<image style="overflow:visible;" width="233" height="297" xlink:href="C6340A2.png"  transform="matrix(1 0 0 1 36 4)">
		</image>
	</g>
	<g id="XMLID_79_" class="st1">
		<path id="XMLID_75_" class="st15" d="M211.3,153.1L207.7,97c0-35-28.5-63.7-63.5-64v136.3v58.4v29.7l29.4-36.5l24.8,12.6l3.8-35.3
			l22-2.3L211.3,153.1z"/>
		<path id="XMLID_74_" class="st16" d="M77.4,153.1L81,97c0-35,28.5-63.7,63.5-64v136.3v58.4v29.7L115,220.9l-24.8,12.6l-3.8-35.3
			l-22-2.3L77.4,153.1z"/>
		<path id="XMLID_77_" class="st8" d="M144.3,126.3c11.5,0,14.7,13.4,14.7,17.3c0,3.9-28.7,3.9-28.7,0.7
			C130.3,140.1,132.8,126.3,144.3,126.3z"/>
		<path id="XMLID_76_" class="st8" d="M137.5,115.2c-0.1,3.4-3.8,6-8.3,5.9c-4.5-0.1-13.9-5.4-13.9-8.7c0.1-3.4,9.6-3.5,14.1-3.4
			C134,109,137.6,111.8,137.5,115.2z"/>
		<path id="XMLID_78_" class="st8" d="M152.1,115.2c0.1,3.4,3.8,6,8.3,5.9c4.5-0.1,13.9-5.4,13.9-8.7c-0.1-3.4-9.6-3.5-14.1-3.4
			C155.6,109,152.1,111.8,152.1,115.2z"/>
	</g>
</g>
</svg>
